<?xml version="1.0" encoding="UTF-8"?>
<svg xmlns="http://www.w3.org/2000/svg" viewBox="0 0 6000 5000">
  <defs>
    <style>
      .cls-1 {
        fill: #577b89;
      }

      .cls-2 {
        fill: #c4cdcc;
      }

      .cls-3 {
        fill: #fff;
      }

      .cls-4 {
        fill: #7995a1;
      }

      .cls-5 {
        fill: #f7f8f9;
      }

      .cls-6 {
        fill: #b53230;
      }

      .cls-7 {
        fill: #d5dddf;
      }

      .cls-8 {
        fill: #d8534a;
      }

      .cls-9 {
        fill: #e4624c;
      }

      .cls-10 {
        fill: #020202;
        opacity: .06;
      }
    </style>
  </defs>
  <g id="Layer_1">
    <rect class="cls-3" width="6000" height="5000"/>
  </g>
  <g id="Layer_2">
    <path class="cls-10" d="M4800.67,953H1312.46c-53.76,0-97.46,43.47-97.46,97.22v3274.97c0,62.27,50.6,112.81,112.87,112.81h3457.39c62.27,0,112.75-50.54,112.75-112.81V1050.22c0-53.76-43.58-97.22-97.33-97.22Z"/>
    <g>
      <path class="cls-1" d="M4729.26,4384.94H1271.87c-62.27,0-112.74-50.48-112.74-112.74V1262.06h3682.88v3010.13c0,62.27-50.48,112.74-112.74,112.74Z"/>
      <path class="cls-2" d="M4615,4202.82H1386.13c-54.14,0-98.02-43.89-98.02-98.02V1530.63h3424.91v2574.17c0,54.14-43.89,98.02-98.02,98.02Z"/>
      <path class="cls-7" d="M4615,4105.96H1386.13c-54.14,0-98.02-43.89-98.02-98.02V1433.77h3424.91v2574.17c0,54.13-43.89,98.02-98.02,98.02Z"/>
      <path class="cls-5" d="M4615,3993.71H1386.13c-54.14,0-98.02-43.89-98.02-98.02V1262.06h3424.91v2633.62c0,54.14-43.89,98.02-98.02,98.02Z"/>
      <path class="cls-7" d="M4713,1447v181h-19.89c0-35-27.76-62.01-62.01-62.01s-62.01,27.01-62.01,62.01h-31.26c0-35-27.76-62.01-62.01-62.01s-62.01,27.01-62.01,62.01h-31.26c0-35-27.76-62.01-62.01-62.01s-62.01,27.01-62.01,62.01h-31.26c0-35-27.76-62.01-62.01-62.01s-62.01,27.01-62.01,62.01h-31.26c0-35-27.76-62.01-62.01-62.01s-62.01,27.01-62.01,62.01h-31.26c0-35-27.76-62.01-62.01-62.01s-62.01,27.01-62.01,62.01h-31.26c0-35-27.76-62.01-62.01-62.01s-62.01,27.01-62.01,62.01h-31.26c0-35-27.76-62.01-62.01-62.01s-62.01,27.01-62.01,62.01h-31.26c0-35-27.76-62.01-62.01-62.01s-62.01,27.01-62.01,62.01h-31.26c0-35-27.76-62.01-62.01-62.01s-62.01,27.01-62.01,62.01h-31.26c0-35-27.76-62.01-62.01-62.01s-62.01,27.01-62.01,62.01h-31.26c0-35-27.76-62.01-62.01-62.01s-62.01,27.01-62.01,62.01h-31.26c0-35-27.76-62.01-62.01-62.01s-62.01,27.01-62.01,62.01h-31.26c0-35-27.76-62.01-62.01-62.01s-62.01,27.01-62.01,62.01h-31.26c0-35-27.76-62.01-62.01-62.01s-62.01,27.01-62.01,62.01h-31.26c0-35-27.76-62.01-62.01-62.01s-62.01,27.01-62.01,62.01h-31.26c0-35-27.76-62.01-62.01-62.01s-62.01,27.01-62.01,62.01h-31.26c0-35-27.76-62.01-62.01-62.01s-62.01,27.01-62.01,62.01h-31.26c0-35-27.76-62.01-62.01-62.01s-62.01,27.01-62.01,62.01h-31.26c0-35-27.76-62.01-62.01-62.01s-62.01,27.01-62.01,62.01h-31.26c0-35-27.76-62.01-62.01-62.01s-62.01,27.01-62.01,62.01h-31.26c0-35-27.76-62.01-62.01-62.01s-62.01,27.01-62.01,62.01h-20v-181h3425Z"/>
      <path class="cls-8" d="M4815.15,1447.59H1185.97c-14.83,0-26.85-12.02-26.85-26.85v-423.52c0-53.76,43.58-97.33,97.33-97.33h3488.21c53.76,0,97.33,43.58,97.33,97.33v423.52c0,14.83-12.02,26.85-26.85,26.85Z"/>
      <path class="cls-1" d="M1698,2271.58v-12.08h67.45v10.96c-19.95,27.26-34.28,55.64-40.47,88.8l-.56.84h-13.21c6.18-33.44,19.95-61.82,38.22-88.52h-51.43Z"/>
      <path class="cls-1" d="M2142.33,2296.28c-7.87-5.34-12.37-11.24-12.37-20.8,0-17.99,13.21-26.7,30.07-26.7s29.79,8.71,29.79,26.98c0,9.27-4.22,15.18-12.08,20.51,10.12,5.62,16.02,13.21,16.02,25.29,0,19.39-14.33,31.19-33.72,31.19s-33.44-11.8-33.44-31.47c1.12-14.61,8.71-21.36,15.74-25.01ZM2160.04,2340.68c11.24,0,20.51-7.59,20.51-19.11s-9.84-17.99-20.51-17.99-20.51,6.18-20.51,17.7,9.27,19.39,20.51,19.39ZM2160.04,2290.09c8.99,0,17.14-5.06,17.14-14.61s-7.59-14.61-16.86-14.61-17.42,4.22-17.42,14.61c0,9.55,8.43,14.61,17.14,14.61Z"/>
      <path class="cls-1" d="M2596.4,2333.4c1.69,7.03,7.87,14.33,15.46,14.33,17.99,0,23.04-19.67,23.04-35.97-5.9,6.18-13.77,9.84-22.76,9.84-16.86,0-30.63-13.77-30.63-30.91,0-20.51,12.36-34.85,33.44-34.85,28.66,0,33.72,26.7,33.72,50.02s-7.03,53.96-36.53,53.96c-14.05,0-28.66-10.96-28.66-26.42h12.93ZM2614.1,2310.08c12.08,0,19.11-9.55,19.11-21.36,0-10.68-7.03-21.64-18.55-21.64-12.36,0-19.67,10.4-19.67,21.92s7.03,21.08,19.11,21.08Z"/>
      <g>
        <path class="cls-1" d="M2970.47,2290.12v-13.77c16.04-2.81,19.2-3.09,24.72-19.67h7.63v100.61h-11.31v-71.38l-21.04,4.22Z"/>
        <path class="cls-1" d="M3080.11,2253.59c25.77,0,30.24,29.23,30.24,51.15,0,19.39-2.63,50.86-30.24,50.86s-30.77-27.54-30.77-50.58,4.21-51.43,30.77-51.43ZM3079.85,2344.92c17.88,0,17.88-26.7,17.88-39.91,0-23.61-4.73-39.34-17.88-39.34-17.36,0-18.14,26.98-18.14,39.9,0,12.08.79,39.34,18.14,39.34Z"/>
      </g>
      <g>
        <path class="cls-1" d="M3424.55,2290.12v-13.77c16.04-2.81,19.2-3.09,24.72-19.67h7.63v100.61h-11.31v-71.38l-21.04,4.22Z"/>
        <path class="cls-1" d="M3508.43,2290.12v-13.77c16.04-2.81,19.2-3.09,24.72-19.67h7.63v100.61h-11.31v-71.38l-21.04,4.22Z"/>
      </g>
      <g>
        <path class="cls-1" d="M3854.03,2290.12v-13.77c16.04-2.81,19.2-3.09,24.72-19.67h7.63v100.61h-11.31v-71.38l-21.04,4.22Z"/>
        <path class="cls-1" d="M3961.83,2270.45c-13.94,0-17.09,12.08-18.14,23.89h-12.1c0-21.64,9.99-35.13,30.77-35.13,16.3,0,30.77,10.96,30.77,29.51,0,32.32-49.44,34.85-49.44,58.17h49.44v12.93h-63.64c0-9.55,1.32-20.51,7.36-28.1,7.63-10.68,19.98-16.58,30.5-23.89,6.57-4.5,12.88-10.4,12.88-19.11,0-10.96-8.68-18.27-18.41-18.27Z"/>
      </g>
      <g>
        <path class="cls-8" d="M4292.2,2290.12v-13.77c16.04-2.81,19.2-3.09,24.72-19.67h7.63v100.61h-11.31v-71.38l-21.04,4.22Z"/>
        <path class="cls-8" d="M4385.54,2330.31c1.58,12.36,6.57,21.36,19.2,21.36,11.31,0,19.72-8.15,19.72-19.95,0-16.02-13.94-17.14-25.51-17.99v-10.96c9.99,0,19.46-3.09,22.35-15.46,0-10.4-6.05-16.3-15.78-16.3-13.41,0-17.09,7.59-18.41,20.51h-11.57c0-20.8,10.26-32.6,29.98-32.6,15.78,0,28.14,9.55,28.14,27.54,0,8.99-3.16,16.86-11.31,21.08,9.47,4.78,14.46,11.52,14.46,23.61,0,20.51-12.62,31.76-31.55,31.76s-31.55-11.24-31.55-32.6h11.83Z"/>
      </g>
      <g>
        <path class="cls-1" d="M1597.77,2687.14v-13.77c17.02-2.81,20.37-3.09,26.23-19.67h8.09v100.61h-12v-71.38l-22.33,4.22Z"/>
        <path class="cls-1" d="M1679.26,2729.02v-14.05l44.65-62.39h10.05v65.48h14.51v10.96h-14.51v24.17h-12.84v-24.17h-41.86ZM1692.93,2717.49h27.91v-39.91l-27.91,39.91Z"/>
      </g>
      <g>
        <path class="cls-1" d="M2062.4,2687.14v-13.77c16.24-2.81,19.43-3.09,25.02-19.67h7.72v100.61h-11.45v-71.38l-21.29,4.22Z"/>
        <path class="cls-1" d="M2156.89,2731.83c2.66,10.12,9.05,16.3,18.63,16.3,14.11,0,20.76-8.71,20.76-23.04s-5.32-23.04-18.63-23.04c-7.72,0-12.78,2.81-18.37,8.71h-11.98l5.06-54.24h51.64v12.37h-40.99c-1.33,19.11-1.6,23.89-1.6,25.29,6.12-2.25,11.71-3.93,18.9-3.93,19.43,0,28.48,13.49,28.48,33.16,0,21.36-11.98,36.53-32.74,36.53-15.44,0-31.14-10.12-31.14-28.1h11.98Z"/>
      </g>
      <g>
        <path class="cls-1" d="M2532.54,2687.14v-13.77c15.87-2.81,18.99-3.09,24.45-19.67h7.54v100.61h-11.19v-71.38l-20.81,4.22Z"/>
        <path class="cls-1" d="M2642.84,2651.17c15.09,0,23.67,10.12,26.79,26.13h-11.19c-2.34-6.46-8.06-14.61-14.83-14.61-16.65,0-20.81,16.02-21.07,35.97,5.72-6.74,12.49-9.84,21.07-9.84,16.91,0,28.09,13.21,28.09,32.04s-11.45,34.29-30.96,34.29c-26.01,0-30.7-27.54-30.7-49.74,0-23.61,5.46-54.24,32.78-54.24ZM2641.54,2743.07c10.93,0,17.95-10.96,17.95-21.92,0-12.37-6.5-20.23-17.95-20.23s-18.47,9.27-18.47,21.08,7.54,21.08,18.47,21.08Z"/>
      </g>
      <g>
        <path class="cls-1" d="M2982.18,2687.14v-13.77c15.87-2.81,18.99-3.09,24.45-19.67h7.54v100.61h-11.19v-71.38l-20.81,4.22Z"/>
        <path class="cls-1" d="M3059.96,2668.6v-12.08h62.43v10.96c-18.47,27.26-31.74,55.64-37.46,88.8l-.52.84h-12.23c5.72-33.44,18.47-61.82,35.38-88.52h-47.6Z"/>
      </g>
      <g>
        <path class="cls-1" d="M3424.39,2687.14v-13.77c15.87-2.81,18.99-3.09,24.45-19.67h7.54v100.61h-11.19v-71.38l-20.81,4.22Z"/>
        <path class="cls-1" d="M3519.08,2699.79c-7.28-5.34-11.45-11.24-11.45-20.8,0-17.99,12.23-26.7,27.83-26.7s27.57,8.71,27.57,26.98c0,9.27-3.9,15.17-11.19,20.51,9.37,5.62,14.83,13.21,14.83,25.29,0,19.39-13.27,31.19-31.22,31.19s-30.95-11.8-30.95-31.47c1.04-14.61,8.06-21.36,14.57-25.01ZM3535.46,2744.19c10.41,0,18.99-7.59,18.99-19.11s-9.1-17.99-18.99-17.99-18.99,6.18-18.99,17.7,8.58,19.39,18.99,19.39ZM3535.46,2693.61c8.32,0,15.87-5.06,15.87-14.61s-7.02-14.61-15.61-14.61-16.13,4.22-16.13,14.61c0,9.55,7.8,14.61,15.87,14.61Z"/>
      </g>
      <g>
        <path class="cls-1" d="M3837.81,2687.14v-13.77c15.87-2.81,18.99-3.09,24.45-19.67h7.54v100.61h-11.19v-71.38l-20.81,4.22Z"/>
        <path class="cls-1" d="M3929.64,2730.42c1.56,7.03,7.28,14.33,14.31,14.33,16.65,0,21.33-19.67,21.33-35.97-5.46,6.18-12.75,9.84-21.07,9.84-15.61,0-28.35-13.77-28.35-30.91,0-20.51,11.45-34.85,30.95-34.85,26.53,0,31.22,26.7,31.22,50.02s-6.5,53.96-33.82,53.96c-13.01,0-26.53-10.96-26.53-26.42h11.97ZM3946.03,2707.1c11.19,0,17.69-9.55,17.69-21.36,0-10.68-6.5-21.64-17.17-21.64-11.45,0-18.21,10.4-18.21,21.92s6.5,21.08,17.69,21.08Z"/>
      </g>
      <g>
        <path class="cls-8" d="M4295.07,2667.47c-13.79,0-16.91,12.08-17.95,23.89h-11.97c0-21.64,9.88-35.13,30.44-35.13,16.13,0,30.44,10.96,30.44,29.51,0,32.32-48.91,34.85-48.91,58.17h48.91v12.93h-62.95c0-9.55,1.3-20.51,7.28-28.1,7.54-10.68,19.77-16.58,30.18-23.89,6.5-4.5,12.75-10.4,12.75-19.11,0-10.96-8.58-18.27-18.21-18.27Z"/>
        <path class="cls-8" d="M4380.91,2650.61c25.49,0,29.91,29.23,29.91,51.15,0,19.39-2.6,50.87-29.91,50.87s-30.44-27.54-30.44-50.58,4.16-51.43,30.44-51.43ZM4380.65,2741.94c17.69,0,17.69-26.7,17.69-39.91,0-23.61-4.68-39.34-17.69-39.34-17.17,0-17.95,26.98-17.95,39.91,0,12.08.78,39.34,17.95,39.34Z"/>
      </g>
      <g>
        <path class="cls-1" d="M1639.25,3114.72c-13.79,0-16.91,12.08-17.95,23.89h-11.97c0-21.64,9.88-35.13,30.44-35.13,16.13,0,30.44,10.96,30.44,29.51,0,32.32-48.91,34.85-48.91,58.17h48.91v12.93h-62.95c0-9.55,1.3-20.51,7.28-28.1,7.54-10.68,19.77-16.58,30.18-23.89,6.5-4.5,12.75-10.4,12.75-19.11,0-10.96-8.58-18.27-18.21-18.27Z"/>
        <path class="cls-1" d="M1699.61,3134.39v-13.77c15.87-2.81,18.99-3.09,24.45-19.67h7.54v100.61h-11.19v-71.38l-20.81,4.22Z"/>
      </g>
      <g>
        <path class="cls-1" d="M2080.69,3114.72c-13.79,0-16.91,12.08-17.95,23.89h-11.97c0-21.64,9.88-35.13,30.44-35.13,16.13,0,30.44,10.96,30.44,29.51,0,32.32-48.91,34.85-48.91,58.17h48.91v12.93h-62.95c0-9.55,1.3-20.51,7.28-28.1,7.54-10.68,19.77-16.58,30.18-23.89,6.5-4.5,12.75-10.4,12.75-19.11,0-10.96-8.58-18.27-18.21-18.27Z"/>
        <path class="cls-1" d="M2164.72,3114.72c-13.79,0-16.91,12.08-17.95,23.89h-11.97c0-21.64,9.88-35.13,30.44-35.13,16.13,0,30.44,10.96,30.44,29.51,0,32.32-48.91,34.85-48.91,58.17h48.91v12.93h-62.95c0-9.55,1.3-20.51,7.28-28.1,7.54-10.68,19.77-16.58,30.18-23.89,6.5-4.5,12.75-10.4,12.75-19.11,0-10.96-8.58-18.27-18.21-18.27Z"/>
      </g>
      <g>
        <path class="cls-1" d="M1625.16,3593.27c-13.49,0-16.54,12.08-17.56,23.89h-11.71c0-21.64,9.67-35.13,29.77-35.13,15.78,0,29.77,10.96,29.77,29.51,0,32.32-47.84,34.85-47.84,58.17h47.84v12.93h-61.58c0-9.55,1.27-20.51,7.12-28.1,7.38-10.68,19.34-16.58,29.52-23.89,6.36-4.5,12.47-10.4,12.47-19.11,0-10.96-8.4-18.27-17.81-18.27Z"/>
        <path class="cls-1" d="M1695.65,3625.59c-7.13-5.34-11.2-11.24-11.2-20.8,0-17.99,11.96-26.7,27.23-26.7s26.97,8.71,26.97,26.98c0,9.27-3.82,15.17-10.94,20.51,9.16,5.62,14.5,13.21,14.5,25.29,0,19.39-12.98,31.19-30.54,31.19s-30.28-11.8-30.28-31.47c1.02-14.61,7.89-21.36,14.25-25.01ZM1711.68,3669.99c10.18,0,18.58-7.59,18.58-19.11s-8.91-17.99-18.58-17.99-18.58,6.18-18.58,17.7,8.4,19.39,18.58,19.39ZM1711.68,3619.41c8.14,0,15.52-5.06,15.52-14.61s-6.87-14.61-15.27-14.61-15.78,4.21-15.78,14.61c0,9.55,7.63,14.61,15.52,14.61Z"/>
      </g>
      <g>
        <path class="cls-1" d="M2079.86,3593.27c-13.49,0-16.54,12.08-17.56,23.89h-11.71c0-21.64,9.67-35.13,29.77-35.13,15.78,0,29.77,10.96,29.77,29.51,0,32.32-47.84,34.85-47.84,58.17h47.84v12.93h-61.58c0-9.55,1.27-20.51,7.12-28.1,7.38-10.68,19.34-16.58,29.52-23.89,6.36-4.5,12.47-10.4,12.47-19.11,0-10.96-8.4-18.27-17.81-18.27Z"/>
        <path class="cls-1" d="M2147.55,3656.22c1.53,7.03,7.12,14.33,14,14.33,16.29,0,20.87-19.67,20.87-35.97-5.34,6.18-12.47,9.84-20.61,9.84-15.27,0-27.74-13.77-27.74-30.91,0-20.51,11.2-34.85,30.28-34.85,25.96,0,30.54,26.7,30.54,50.02s-6.36,53.96-33.08,53.96c-12.72,0-25.96-10.96-25.96-26.42h11.71ZM2163.58,3632.9c10.94,0,17.3-9.55,17.3-21.36,0-10.68-6.36-21.64-16.8-21.64-11.2,0-17.81,10.4-17.81,21.92s6.36,21.08,17.3,21.08Z"/>
      </g>
      <g>
        <path class="cls-1" d="M2516.19,3653.13c1.53,12.37,6.36,21.36,18.58,21.36,10.94,0,19.09-8.15,19.09-19.95,0-16.02-13.49-17.14-24.68-17.99v-10.96c9.67,0,18.83-3.09,21.63-15.46,0-10.4-5.85-16.3-15.27-16.3-12.98,0-16.54,7.59-17.81,20.51h-11.2c0-20.79,9.92-32.6,29.01-32.6,15.27,0,27.23,9.56,27.23,27.54,0,8.99-3.05,16.86-10.94,21.08,9.16,4.78,14,11.52,14,23.61,0,20.51-12.21,31.76-30.54,31.76s-30.54-11.24-30.54-32.6h11.45Z"/>
        <path class="cls-1" d="M2613.14,3576.41c24.94,0,29.26,29.23,29.26,51.15,0,19.39-2.54,50.87-29.26,50.87s-29.77-27.54-29.77-50.58,4.07-51.43,29.77-51.43ZM2612.89,3667.74c17.3,0,17.3-26.7,17.3-39.91,0-23.61-4.58-39.34-17.3-39.34-16.8,0-17.56,26.98-17.56,39.91,0,12.08.76,39.34,17.56,39.34Z"/>
      </g>
      <g>
        <path class="cls-1" d="M2987.56,3653.13c1.57,12.37,6.53,21.36,19.08,21.36,11.24,0,19.6-8.15,19.6-19.95,0-16.02-13.85-17.14-25.35-17.99v-10.96c9.93,0,19.34-3.09,22.22-15.46,0-10.4-6.01-16.3-15.68-16.3-13.33,0-16.99,7.59-18.3,20.51h-11.5c0-20.79,10.19-32.6,29.8-32.6,15.68,0,27.97,9.56,27.97,27.54,0,8.99-3.14,16.86-11.24,21.08,9.41,4.78,14.38,11.52,14.38,23.61,0,20.51-12.55,31.76-31.36,31.76s-31.36-11.24-31.36-32.6h11.76Z"/>
        <path class="cls-1" d="M3061.53,3612.94v-13.77c15.94-2.81,19.08-3.09,24.57-19.67h7.58v100.61h-11.24v-71.38l-20.91,4.21Z"/>
      </g>
      <g>
        <path class="cls-1" d="M2556.22,3114.72c-13.79,0-16.91,12.08-17.95,23.89h-11.97c0-21.64,9.88-35.13,30.44-35.13,16.13,0,30.44,10.96,30.44,29.51,0,32.32-48.91,34.85-48.91,58.17h48.91v12.93h-62.95c0-9.55,1.3-20.51,7.28-28.1,7.54-10.68,19.77-16.58,30.18-23.89,6.5-4.5,12.75-10.4,12.75-19.11,0-10.96-8.58-18.27-18.21-18.27Z"/>
        <path class="cls-1" d="M2625.93,3174.58c1.56,12.37,6.5,21.36,18.99,21.36,11.19,0,19.51-8.15,19.51-19.95,0-16.02-13.79-17.14-25.23-17.99v-10.96c9.89,0,19.25-3.09,22.11-15.46,0-10.4-5.98-16.3-15.61-16.3-13.27,0-16.91,7.59-18.21,20.51h-11.45c0-20.79,10.15-32.6,29.66-32.6,15.61,0,27.83,9.55,27.83,27.54,0,8.99-3.12,16.86-11.19,21.08,9.36,4.78,14.31,11.52,14.31,23.61,0,20.51-12.49,31.76-31.22,31.76s-31.22-11.24-31.22-32.6h11.71Z"/>
      </g>
      <g>
        <path class="cls-1" d="M2992.72,3114.72c-13.33,0-16.35,12.08-17.36,23.89h-11.57c0-21.64,9.56-35.13,29.43-35.13,15.6,0,29.43,10.96,29.43,29.51,0,32.32-47.3,34.85-47.3,58.17h47.3v12.93h-60.88c0-9.55,1.26-20.51,7.04-28.1,7.3-10.68,19.12-16.58,29.18-23.89,6.29-4.5,12.33-10.4,12.33-19.11,0-10.96-8.3-18.27-17.61-18.27Z"/>
        <path class="cls-1" d="M3044.3,3176.26v-14.05l40.25-62.39h9.06v65.48h13.08v10.96h-13.08v24.17h-11.57v-24.17h-37.74ZM3056.62,3164.74h25.16v-39.91l-25.16,39.91Z"/>
      </g>
      <g>
        <path class="cls-1" d="M3415.03,3114.72c-13.33,0-16.35,12.08-17.36,23.89h-11.57c0-21.64,9.56-35.13,29.43-35.13,15.6,0,29.43,10.96,29.43,29.51,0,32.32-47.29,34.85-47.29,58.17h47.29v12.93h-60.88c0-9.55,1.26-20.51,7.04-28.1,7.29-10.68,19.12-16.58,29.18-23.89,6.29-4.5,12.33-10.4,12.33-19.11,0-10.96-8.3-18.27-17.61-18.27Z"/>
        <path class="cls-1" d="M3482.45,3179.07c2.52,10.12,8.55,16.3,17.61,16.3,13.33,0,19.62-8.71,19.62-23.04s-5.03-23.04-17.61-23.04c-7.3,0-12.08,2.81-17.36,8.71h-11.32l4.78-54.24h48.8v12.37h-38.74c-1.26,19.11-1.51,23.89-1.51,25.29,5.79-2.25,11.07-3.93,17.86-3.93,18.36,0,26.92,13.49,26.92,33.16,0,21.36-11.32,36.53-30.94,36.53-14.59,0-29.43-10.12-29.43-28.1h11.32Z"/>
      </g>
      <g>
        <path class="cls-1" d="M3843.46,3114.72c-13.69,0-16.79,12.08-17.83,23.89h-11.88c0-21.64,9.82-35.13,30.23-35.13,16.02,0,30.23,10.96,30.23,29.51,0,32.32-48.58,34.85-48.58,58.17h48.58v12.93h-62.53c0-9.55,1.29-20.51,7.23-28.1,7.49-10.68,19.64-16.58,29.97-23.89,6.46-4.5,12.66-10.4,12.66-19.11,0-10.96-8.53-18.27-18.09-18.27Z"/>
        <path class="cls-1" d="M3930.53,3098.42c14.99,0,23.51,10.12,26.61,26.13h-11.11c-2.33-6.46-8.01-14.61-14.73-14.61-16.54,0-20.67,16.02-20.93,35.97,5.68-6.74,12.4-9.84,20.93-9.84,16.79,0,27.9,13.21,27.9,32.04s-11.37,34.29-30.75,34.29c-25.84,0-30.49-27.54-30.49-49.74,0-23.61,5.43-54.24,32.56-54.24ZM3929.24,3190.32c10.85,0,17.83-10.96,17.83-21.92,0-12.37-6.46-20.23-17.83-20.23s-18.34,9.27-18.34,21.08,7.49,21.08,18.34,21.08Z"/>
      </g>
      <g>
        <path class="cls-8" d="M4294.81,3114.72c-13.69,0-16.79,12.08-17.83,23.89h-11.88c0-21.64,9.82-35.13,30.23-35.13,16.02,0,30.23,10.96,30.23,29.51,0,32.32-48.58,34.85-48.58,58.17h48.58v12.93h-62.53c0-9.55,1.29-20.51,7.23-28.1,7.49-10.68,19.64-16.58,29.97-23.89,6.46-4.5,12.66-10.4,12.66-19.11,0-10.96-8.53-18.27-18.09-18.27Z"/>
        <path class="cls-8" d="M4349.58,3115.84v-12.08h62.01v10.96c-18.34,27.26-31.52,55.64-37.21,88.8l-.52.84h-12.14c5.68-33.44,18.34-61.82,35.14-88.52h-47.28Z"/>
      </g>
      <path class="cls-1" d="M2633.72,1821.69c-15.6,0-19.14,12.66-20.31,25.03h-13.54c0-22.67,11.19-36.8,34.45-36.8,18.25,0,34.45,11.48,34.45,30.91,0,33.86-55.35,36.51-55.35,60.94h55.35v13.54h-71.25c0-10.01,1.47-21.49,8.24-29.44,8.54-11.19,22.38-17.37,34.15-25.03,7.36-4.71,14.43-10.89,14.43-20.02,0-11.48-9.72-19.14-20.61-19.14Z"/>
      <path class="cls-1" d="M2135.45,1842.3v-14.43c17.96-2.94,21.49-3.24,27.68-20.61h8.54v105.4h-12.66v-74.78l-23.55,4.42Z"/>
      <path class="cls-1" d="M3043.94,1884.41c1.77,12.95,7.36,22.38,21.49,22.38,12.66,0,22.08-8.54,22.08-20.9,0-16.78-15.6-17.96-28.56-18.84v-11.48c11.19,0,21.79-3.24,25.03-16.19,0-10.89-6.77-17.08-17.67-17.08-15.01,0-19.14,7.95-20.61,21.49h-12.95c0-21.79,11.48-34.15,33.56-34.15,17.67,0,31.5,10.01,31.5,28.85,0,9.42-3.53,17.66-12.66,22.08,10.6,5.01,16.19,12.07,16.19,24.73,0,21.49-14.13,33.27-35.33,33.27s-35.33-11.78-35.33-34.15h13.25Z"/>
      <path class="cls-1" d="M3449.74,1886.17v-14.72l47.11-65.36h10.6v68.6h15.31v11.48h-15.31v25.32h-13.54v-25.32h-44.16ZM3464.17,1874.1h29.44v-41.81l-29.44,41.81Z"/>
      <path class="cls-1" d="M3910.41,1889.12c2.94,10.6,10.01,17.08,20.61,17.08,15.6,0,22.96-9.13,22.96-24.14s-5.89-24.14-20.61-24.14c-8.54,0-14.13,2.94-20.31,9.13h-13.25l5.59-56.82h57.12v12.95h-45.34c-1.47,20.02-1.77,25.03-1.77,26.5,6.77-2.35,12.95-4.12,20.9-4.12,21.49,0,31.5,14.13,31.5,34.74,0,22.38-13.25,38.27-36.21,38.27-17.08,0-34.45-10.6-34.45-29.44h13.25Z"/>
      <path class="cls-8" d="M4365.82,1804.62c17.08,0,26.79,10.6,30.33,27.38h-12.66c-2.65-6.77-9.13-15.31-16.78-15.31-18.84,0-23.55,16.78-23.85,37.69,6.48-7.07,14.13-10.3,23.85-10.3,19.14,0,31.8,13.84,31.8,33.56s-12.96,35.92-35.04,35.92c-29.44,0-34.74-28.85-34.74-52.11,0-24.73,6.18-56.82,37.1-56.82ZM4364.35,1900.89c12.37,0,20.31-11.48,20.31-22.96,0-12.95-7.36-21.2-20.31-21.2s-20.9,9.72-20.9,22.08,8.54,22.08,20.9,22.08Z"/>
      <path class="cls-9" d="M3343.83,3038.44s-1.08.68-3.16,2.01c-.52.33-1.11.7-1.75,1.11-.6.42-1.27.88-1.99,1.38-.72.5-1.49,1.04-2.32,1.62-.83.59-1.7,1.27-2.63,1.96-3.72,2.78-8.16,6.41-13.03,11.02-4.87,4.61-10.15,10.23-15.45,16.99-2.67,3.36-5.27,7.06-7.89,10.99-1.24,2.01-2.6,4.01-3.81,6.16-.62,1.07-1.25,2.14-1.88,3.23-.6,1.11-1.2,2.22-1.82,3.35-2.4,4.54-4.74,9.33-6.81,14.45-2.09,5.1-4.05,10.47-5.65,16.12-1.63,5.64-3.01,11.53-4.05,17.63-1,6.11-1.66,12.43-1.89,18.9-.23,6.47-.03,13.09.68,19.78.1.83.2,1.67.3,2.51l.15,1.26.04.32c.02.19-.05-.52,0-.06l.11.69c.3,1.83.61,3.67.91,5.51.15.92.31,1.85.46,2.78l.12.69.15.61.3,1.21c.39,1.62.78,3.24,1.17,4.88.33,1.61.9,3.33,1.4,5.02.51,1.7,1.02,3.41,1.53,5.12.59,1.7,1.24,3.38,1.85,5.08.31.85.62,1.7.93,2.55l.47,1.28.55,1.26c1.5,3.34,2.82,6.78,4.59,10.06.84,1.66,1.67,3.33,2.52,5,.94,1.63,1.88,3.26,2.83,4.9,1.79,3.33,4.01,6.46,6.06,9.7.5.82,1.07,1.6,1.65,2.37l1.71,2.35,1.71,2.35c.56.79,1.14,1.58,1.77,2.32,2.49,3.02,4.85,6.15,7.58,9.03,1.34,1.46,2.62,2.97,4,4.4,1.41,1.41,2.82,2.82,4.23,4.24.72.7,1.39,1.44,2.14,2.11l2.24,2.02c1.5,1.34,2.97,2.73,4.5,4.04,1.57,1.28,3.14,2.56,4.71,3.85.8.63,1.55,1.31,2.38,1.91l2.46,1.81c1.65,1.2,3.26,2.46,4.95,3.62,1.71,1.13,3.42,2.26,5.14,3.39l1.28.85.32.21c.44.29-.24-.16-.03-.03l.73.44,2.94,1.76,2.95,1.76,1.48.88c.5.3.9.48,1.35.72,1.76.92,3.52,1.85,5.29,2.77l1.33.7,1.43.67,2.87,1.35c3.78,1.89,7.77,3.41,11.7,5.09,2,.77,4.02,1.48,6.04,2.23l3.03,1.1,3.09.98c2.07.64,4.11,1.35,6.2,1.94,2.1.57,4.2,1.14,6.3,1.72,16.89,4.39,34.61,6.95,52.62,7.48,9,.26,18.07.14,27.15-.56l3.12-.21,3.72-.35,1.86-.17c.65-.06,1.1-.13,1.65-.19l3.19-.39c2.16-.29,4.46-.62,6.67-.96,2.23-.39,4.47-.71,6.69-1.17,8.89-1.7,17.7-3.86,26.29-6.62,8.58-2.75,17.01-5.92,25.06-9.73,8.06-3.79,15.82-8.05,23.05-12.91,3.66-2.37,7.11-4.99,10.52-7.61,3.33-2.71,6.62-5.44,9.66-8.38,6.15-5.82,11.66-12.12,16.36-18.86l.9-1.25.84-1.29,1.68-2.56,1.57-2.62.79-1.31.2-.33c-.75,1.21-.07.09-.18.25l.46-.84,1.82-3.35.91-1.68.23-.42c.08-.15.15-.28.19-.37l.27-.62,1.1-2.46.56-1.22.28-.61.29-.72c6.49-15.08,10.06-31.68,11.28-48.62.62-8.47.72-17.03.28-25.58-.06-2.13-.26-4.27-.42-6.41-.14-2.13-.37-4.26-.58-6.39l-.16-1.59-.08-.8-.04-.4c-.08-1.02.07.94.03.57l-.5-3.67c-.33-2.45-.66-4.89-.99-7.33l-.47-3.66-.59-2.91c-.38-1.93-.76-3.85-1.13-5.77l-.54-2.87c-.19-.98-.48-2.05-.71-3.06-.49-2.06-.97-4.11-1.46-6.16-.48-2.05-.92-4.1-1.57-6.11-.57-2.02-1.14-4.04-1.71-6.05-.59-2.01-1.04-4.05-1.78-6.01-.67-1.98-1.34-3.95-2-5.92-5.31-15.75-11.85-30.81-19.33-45.05-3.7-7.14-7.78-13.98-11.93-20.68-2.2-3.26-4.27-6.59-6.46-9.83-2.3-3.14-4.59-6.25-6.83-9.4-9.34-12.24-19.42-23.42-29.99-33.43-1.33-1.24-2.66-2.48-3.98-3.71l-1.98-1.85-.49-.46-.25-.23c1.33.97.2.13.42.28l-1.18-.97c-3.13-2.58-6.24-5.14-9.32-7.68-.37-.3-.8-.68-1.12-.91l-.99-.74-1.98-1.48c-1.31-1-2.62-1.99-3.92-2.98l-1.94-1.5-.97-.75-1.07-.73c-1.44-.97-2.86-1.94-4.29-2.9-2.87-1.89-5.6-3.98-8.53-5.66-2.89-1.76-5.75-3.51-8.58-5.28-2.89-1.64-5.8-3.18-8.65-4.77-1.43-.78-2.84-1.62-4.27-2.35-1.45-.71-2.9-1.41-4.33-2.11-2.88-1.37-5.69-2.87-8.54-4.16-2.88-1.25-5.71-2.48-8.51-3.69-1.41-.6-2.78-1.28-4.19-1.8-1.41-.53-2.81-1.06-4.2-1.59-2.79-1.07-5.54-2.13-8.25-3.17-21.91-7.69-42.15-12.17-59.17-14.77-2.14-.3-4.21-.59-6.23-.87-2.03-.25-4.01-.64-5.92-.77-3.86-.37-7.48-.72-10.84-1.04-.85-.08-1.68-.2-2.5-.24-.82-.04-1.61-.08-2.4-.12-1.57-.08-3.08-.15-4.52-.23-2.89-.13-5.55-.35-7.92-.43-4.72-.02-8.39-.08-10.87-.14-2.49-.06-3.78-.09-3.78-.09h-.22c-2.01-.05-3.61-1.73-3.56-3.74.04-1.52,1-2.8,2.33-3.31,0,0,1.22-.47,3.6-1.39,2.38-.91,5.93-2.24,10.62-3.92,2.36-.75,5.01-1.53,7.95-2.38,1.47-.42,3.02-.86,4.63-1.32.81-.23,1.63-.46,2.47-.7.84-.24,1.71-.4,2.59-.62,3.55-.77,7.37-1.6,11.44-2.48,2.05-.49,4.17-.76,6.36-1.1,2.2-.33,4.46-.67,6.79-1.02,4.67-.81,9.6-1.13,14.82-1.59,5.22-.55,10.69-.64,16.42-.79,1.44-.03,2.89-.06,4.35-.09,1.47-.04,2.94.06,4.43.09,2.99.09,6.04.19,9.15.29,3.13.03,6.27.38,9.49.66,3.22.3,6.5.61,9.84.92,3.32.49,6.68.99,10.1,1.49,1.72.27,3.44.54,5.18.81,1.75.26,3.46.69,5.22,1.03,3.51.75,7.07,1.5,10.67,2.27,3.59.84,7.19,1.88,10.86,2.87,1.84.51,3.68,1.02,5.54,1.53,1.85.55,3.68,1.2,5.54,1.8,3.7,1.26,7.47,2.5,11.26,3.85,7.45,2.98,15.19,5.93,22.76,9.69,1.91.91,3.83,1.83,5.77,2.75l1.45.7,1.49.81c.99.54,1.99,1.08,2.98,1.63,1.99,1.11,3.99,2.22,6.01,3.33,1.01.56,2.01,1.13,3.02,1.7l1.52.86c.53.29.88.53,1.33.8,3.39,2.1,6.81,4.22,10.27,6.35l1.29.81,2.08,1.47c.93.66,1.86,1.32,2.79,1.98,1.86,1.33,3.74,2.67,5.61,4.01,14.85,10.97,29.24,23.71,42.56,38.23,26.56,29.03,48.82,65.31,62.22,106.46,1.62,5.16,3.32,10.31,4.58,15.62,1.34,5.29,2.81,10.56,3.72,15.99.51,2.7,1.03,5.41,1.54,8.12.25,1.37.53,2.67.74,4.1l.57,4.37c.37,2.91.73,5.83,1.1,8.75l.52,4.37.25,3.68c.15,2.46.3,4.92.44,7.38l.22,3.7s.18,2.2.1,1.49v.53s.04,1.05.04,1.05l.05,2.11.09,4.22c.02,1.41-.03,2.82-.04,4.24-.05,2.83-.06,5.65-.22,8.49-.47,11.35-1.59,22.79-3.56,34.22-3.93,22.84-11.19,45.81-22.69,67.21l-.52,1.01-.61,1.08-1.23,2.15-2.48,4.28-.62,1.06c-.11.19-.2.33-.28.46l-.26.4-1.05,1.6-2.09,3.19-.52.8-.68,1.07-.33.47-1.32,1.88c-.88,1.25-1.76,2.5-2.66,3.73l-2.78,3.63-1.4,1.81-1.46,1.76-2.92,3.5-3.03,3.4c-1.99,2.29-4.12,4.43-6.21,6.61-4.27,4.26-8.66,8.37-13.26,12.17-4.54,3.88-9.3,7.43-14.11,10.86-4.86,3.34-9.77,6.58-14.83,9.48-10.06,5.92-20.5,10.89-31.1,15.14-21.21,8.48-43.14,13.8-65.02,16.51-2.73.38-5.48.61-8.21.91-2.76.24-5.43.47-8.25.66l-4.28.25c-.69.03-1.48.09-2.08.1l-1.87.06-3.74.11c-.74.03-.5.01-.79.02h-.51s-1.01,0-1.01,0h-2.03c-10.81.18-21.56-.44-32.18-1.5-21.25-2.14-42.01-6.62-61.73-13.27-2.45-.87-4.9-1.74-7.34-2.61-2.43-.89-4.82-1.91-7.21-2.87l-3.58-1.45-3.52-1.59c-2.34-1.07-4.68-2.11-6.99-3.21-4.56-2.34-9.15-4.55-13.53-7.14l-3.3-1.88-1.65-.94-1.68-1.04c-2.23-1.41-4.45-2.81-6.66-4.2-.53-.35-1.15-.71-1.61-1.04l-1.41-.99-2.81-1.98-2.8-1.97-.7-.49s-.95-.65-.74-.52l-.37-.29-1.48-1.15c-1.97-1.53-3.93-3.06-5.89-4.58-1.93-1.55-3.77-3.21-5.64-4.8l-2.78-2.41c-.93-.8-1.78-1.68-2.67-2.51-1.76-1.69-3.51-3.37-5.26-5.05-1.71-1.72-3.33-3.5-4.98-5.24l-2.46-2.62c-.82-.87-1.57-1.81-2.35-2.71-1.54-1.82-3.08-3.63-4.61-5.43-1.5-1.82-2.89-3.73-4.33-5.59-2.93-3.67-5.46-7.59-8.09-11.38-.67-.94-1.27-1.92-1.87-2.91-.6-.98-1.2-1.96-1.8-2.94-.6-.98-1.19-1.95-1.78-2.93-.6-.97-1.19-1.94-1.71-2.95-2.14-4.02-4.4-7.9-6.22-12-.95-2.02-1.89-4.04-2.82-6.04-.83-2.05-1.66-4.1-2.48-6.14-1.73-4.03-2.99-8.22-4.4-12.28l-.51-1.53-.44-1.55c-.29-1.03-.57-2.07-.85-3.1-.56-2.06-1.14-4.1-1.66-6.14-.44-2.07-.87-4.13-1.31-6.17-.42-2.05-.89-4.04-1.17-6.21-.31-2.12-.62-4.24-.93-6.34l-.23-1.57-.11-.78-.06-.71c-.08-.94-.15-1.87-.23-2.81-.15-1.87-.3-3.72-.45-5.57l-.06-.69c.03.23-.07-.7-.06-.75v-.38s-.06-1.5-.06-1.5c-.03-1-.06-1.99-.08-2.98-.13-7.93.34-15.64,1.27-23.06.94-7.42,2.34-14.55,4.1-21.36,1.79-6.8,3.94-13.26,6.32-19.38,2.36-6.13,5.06-11.88,7.87-17.3,2.79-5.43,5.83-10.47,8.9-15.19,6.2-9.41,12.75-17.41,19.17-24.11,6.41-6.72,12.64-12.17,18.3-16.57,5.66-4.41,10.73-7.79,14.96-10.3,1.06-.63,2.03-1.24,2.99-1.78.96-.53,1.86-1.03,2.69-1.49.83-.46,1.6-.88,2.29-1.26.69-.34,1.31-.65,1.86-.93,2.21-1.1,3.36-1.67,3.36-1.67,1.78-.89,3.95-.16,4.83,1.62.83,1.66.24,3.67-1.29,4.65Z"/>
    </g>
    <g>
      <ellipse class="cls-6" cx="1965.71" cy="1165.03" rx="139.42" ry="121.31"/>
      <rect class="cls-4" x="1892.89" y="592.9" width="145.63" height="613.98" rx="63.33" ry="63.33"/>
      <ellipse class="cls-6" cx="4035.42" cy="1165.03" rx="139.42" ry="121.31"/>
      <path class="cls-1" d="M1965.71,1206.88h9.48c34.98,0,63.33-28.36,63.33-63.33v-487.32c0-34.98-28.36-63.33-63.33-63.33h-9.48v613.98Z"/>
      <rect class="cls-4" x="3962.6" y="592.9" width="145.63" height="613.98" rx="63.33" ry="63.33"/>
      <path class="cls-1" d="M4035.42,1206.88h9.48c34.98,0,63.33-28.36,63.33-63.33v-487.32c0-34.98-28.36-63.33-63.33-63.33h-9.48v613.98Z"/>
    </g>
  </g>
</svg>